<svg width="61" height="61" viewBox="0 0 61 61" fill="none" xmlns="http://www.w3.org/2000/svg">
<g clip-path="url(#clip0_5_1712)">
<path fill-rule="evenodd" clip-rule="evenodd" d="M46.0705 36.8997C48.6016 36.8564 50.678 34.882 50.8486 32.3562C50.8556 32.2527 50.8584 32.1375 50.8622 31.9879L50.9188 29.7397C50.9757 27.4775 49.8729 25.343 47.9949 24.0804C37.3398 16.917 23.5013 16.5687 12.4993 23.1871C10.5602 24.3536 9.35141 26.43 9.29447 28.6922L9.2379 30.9401C9.23411 31.0899 9.2312 31.2052 9.23297 31.3089C9.27624 33.84 11.2507 35.9164 13.7765 36.087C13.88 36.094 13.9953 36.0969 14.145 36.1006L17.8254 36.1932C20.3807 36.2575 22.7149 34.7512 23.7091 32.3964C24.2783 31.0483 25.6146 30.186 27.0775 30.2228L33.0813 30.3739C34.5442 30.4107 35.8354 31.3392 36.3361 32.7142C37.2106 35.116 39.4661 36.7378 42.0213 36.8022L45.7019 36.8948C45.8515 36.8986 45.9668 36.9015 46.0705 36.8997ZM48.1969 32.1771C48.1194 33.3252 47.1756 34.2227 46.025 34.2424C45.9853 34.2431 45.9314 34.242 45.7409 34.2372L42.0882 34.1453C40.6253 34.1085 39.3341 33.18 38.8334 31.805C37.9589 29.4031 35.7034 27.7813 33.1482 27.717L27.1443 27.5659C24.5891 27.5016 22.2548 29.0079 21.2606 31.3627C20.6915 32.7108 19.3551 33.5732 17.8923 33.5364L14.2396 33.4444C14.0491 33.4396 13.9952 33.438 13.9555 33.4353C12.8074 33.3578 11.91 32.414 11.8903 31.2634C11.8896 31.2237 11.8907 31.1698 11.8955 30.9793L11.9513 28.7591C11.9854 27.4052 12.7088 26.1626 13.8693 25.4645C23.987 19.378 36.7133 19.6983 46.5121 26.286C47.636 27.0416 48.296 28.319 48.2619 29.6729L48.206 31.8931C48.2012 32.0836 48.1996 32.1375 48.1969 32.1771Z" fill="white"/>
</g>
<defs>
<clipPath id="clip0_5_1712">
<rect width="42.5234" height="42.5234" fill="white" transform="translate(60.1182 30.8156) rotate(136.442)"/>
</clipPath>
</defs>
</svg>
