<svg width="34" height="35" viewBox="0 0 34 35" fill="none" xmlns="http://www.w3.org/2000/svg">
<path d="M22.2341 11.5723C22.484 11.2419 22.4188 10.7716 22.0884 10.5217C21.7581 10.2718 21.2877 10.337 21.0378 10.6673L11.9699 22.6549C11.9244 22.5385 11.8808 22.4 11.8387 22.2328C11.7093 21.7185 11.6161 21.0326 11.4822 20.0342L11.1523 17.574C11.0972 17.1635 10.7198 16.8753 10.3092 16.9304C9.89869 16.9855 9.61052 17.3629 9.66559 17.7734L10.0015 20.2779C10.128 21.2212 10.2314 21.9921 10.3841 22.5989C10.5429 23.2299 10.7757 23.7758 11.2211 24.2115C11.4164 24.4026 11.6351 24.568 11.8721 24.704C12.4126 25.014 13.0012 25.0895 13.6516 25.0706C14.2771 25.0525 15.0471 24.9422 15.9892 24.8072L18.4905 24.449C18.9006 24.3903 19.1854 24.0103 19.1266 23.6002C19.0679 23.1902 18.6879 22.9054 18.2779 22.9641L15.8208 23.316C14.8236 23.4588 14.1383 23.5559 13.6081 23.5712C13.4358 23.5762 13.2907 23.572 13.1662 23.5599L22.2341 11.5723Z" fill="#898989"/>
</svg>
