<svg width="30" height="30" viewBox="0 0 30 30" fill="none" xmlns="http://www.w3.org/2000/svg">
<path d="M11.25 11.25L11.6691 9.9926C12.5486 7.35415 16.0295 6.78928 17.6982 9.01422C18.6757 10.3175 18.6075 12.1272 17.5347 13.3532L16.3857 14.6664C15.4924 15.6873 15 16.9977 15 18.3542V18.75M27.5 15C27.5 21.9036 21.9036 27.5 15 27.5C8.09644 27.5 2.5 21.9036 2.5 15C2.5 8.09644 8.09644 2.5 15 2.5C21.9036 2.5 27.5 8.09644 27.5 15Z" stroke="#2675EC" stroke-width="1.5" stroke-linecap="round"/>
<path d="M16.25 22.5C16.25 23.1904 15.6904 23.75 15 23.75C14.3096 23.75 13.75 23.1904 13.75 22.5C13.75 21.8096 14.3096 21.25 15 21.25C15.6904 21.25 16.25 21.8096 16.25 22.5Z" fill="#2675EC"/>
</svg>
