<svg width="28" height="25" viewBox="0 0 28 25" fill="none" xmlns="http://www.w3.org/2000/svg">
<path d="M24 8L18.6093 14.4688C16.4732 17.0322 15.4051 18.3139 14 18.3139C12.5949 18.3139 11.5268 17.0322 9.39067 14.4688L8 12.8" stroke="#2675EC" stroke-width="1.5" stroke-linecap="round"/>
<path d="M11.7435 13.2217C11.9611 13.2342 12.0999 13.3472 12.2055 13.5307C12.3747 13.8246 12.5846 14.0697 12.7749 14.3473C12.9335 14.5786 13.0811 14.7711 13.3061 14.9432C13.4517 15.0546 13.521 15.1758 13.621 15.3257C13.6669 15.3947 13.7018 15.4527 13.7828 15.4758C13.8707 15.5009 13.9046 15.6707 13.9211 15.7436C13.9526 15.882 14.0212 16.0156 14.0212 16.1615" stroke="white" stroke-width="2" stroke-linecap="round"/>
<path d="M13.5876 16.204C13.34 16.0053 13.0755 15.8088 12.8755 15.5594C12.8204 15.4907 12.77 15.4165 12.7249 15.3408C12.6797 15.2649 12.6468 15.1823 12.5938 15.111C12.4747 14.9511 12.2924 14.8605 12.1658 14.7093C12.0728 14.5982 12.0082 14.4613 11.9263 14.3416" stroke="white" stroke-width="2" stroke-linecap="round"/>
<path d="M15.1528 16.2827C15.1347 16.4271 14.9875 16.4833 14.8764 16.546C14.7355 16.6254 14.6018 16.7167 14.4674 16.8063C14.4308 16.8307 14.3912 16.8369 14.3484 16.8423C14.2907 16.8495 14.2258 16.8854 14.1735 16.9103C14.1295 16.9312 14.0898 16.9629 14.0443 16.9802C14.0214 16.9889 14.0044 16.9977 13.9899 17.0171" stroke="white" stroke-linecap="round"/>
<path d="M20 7L14.6093 13.4688C12.4732 16.0322 11.4051 17.3139 10 17.3139C8.59488 17.3139 7.52681 16.0322 5.39067 13.4688L4 11.8" stroke="#2675EC" stroke-width="1.5" stroke-linecap="round"/>
<path d="M7.74347 12.2217C7.96108 12.2342 8.09985 12.3472 8.20548 12.5307C8.37473 12.8246 8.58459 13.0697 8.77491 13.3473C8.93355 13.5786 9.08109 13.7711 9.30608 13.9432C9.45174 14.0546 9.52099 14.1758 9.62095 14.3257C9.66693 14.3947 9.70179 14.4527 9.7828 14.4758C9.87067 14.5009 9.90455 14.6707 9.92111 14.7436C9.95256 14.882 10.0212 15.0156 10.0212 15.1615" stroke="white" stroke-width="2" stroke-linecap="round"/>
<path d="M9.58761 15.204C9.33999 15.0053 9.07554 14.8088 8.87549 14.5594C8.82037 14.4907 8.77002 14.4165 8.72491 14.3408C8.67966 14.2649 8.64679 14.1823 8.59376 14.111C8.47467 13.9511 8.29238 13.8605 8.16581 13.7093C8.07279 13.5982 8.00819 13.4613 7.92633 13.3416" stroke="white" stroke-width="2" stroke-linecap="round"/>
<path d="M11.1528 15.2827C11.1347 15.4271 10.9875 15.4833 10.8764 15.546C10.7355 15.6254 10.6018 15.7167 10.4674 15.8063C10.4308 15.8307 10.3912 15.8369 10.3484 15.8423C10.2907 15.8495 10.2258 15.8854 10.1735 15.9103C10.1295 15.9312 10.0898 15.9629 10.0443 15.9802C10.0214 15.9889 10.0044 15.9977 9.98987 16.0171" stroke="white" stroke-linecap="round"/>
</svg>
