<svg width="31" height="29" viewBox="0 0 31 29" fill="none" xmlns="http://www.w3.org/2000/svg">
<path d="M8.96875 9.55908C8.96875 8.98954 9.43046 8.52783 10 8.52783H21C21.5695 8.52783 22.0312 8.98954 22.0312 9.55908C22.0312 10.1286 21.5695 10.5903 21 10.5903H10C9.43046 10.5903 8.96875 10.1286 8.96875 9.55908Z" fill="white"/>
<path d="M8.96875 15.7466C8.96875 15.177 9.43046 14.7153 10 14.7153H21C21.5695 14.7153 22.0312 15.177 22.0312 15.7466C22.0312 16.3161 21.5695 16.7778 21 16.7778H10C9.43046 16.7778 8.96875 16.3161 8.96875 15.7466Z" fill="white"/>
<path fill-rule="evenodd" clip-rule="evenodd" d="M12.7039 0.277832H18.2961C20.1823 0.277826 21.661 0.277821 22.8495 0.374923C24.0597 0.4738 25.0594 0.678478 25.9644 1.13956C27.452 1.89756 28.6615 3.10706 29.4195 4.59472C29.8806 5.49965 30.0853 6.49942 30.1842 7.70962C30.2813 8.89809 30.2813 10.3768 30.2812 12.2629V13.9374C30.2812 14.0055 30.2813 14.0729 30.2813 14.1394C30.2816 16.2687 30.2818 17.5676 29.9618 18.6587C29.2042 21.2426 27.1835 23.2633 24.5996 24.0209C23.5085 24.3408 22.2096 24.3407 20.0802 24.3404C20.0138 24.3403 19.9464 24.3403 19.8783 24.3403H19.1237L19.0408 24.3405C17.8484 24.3481 16.6868 24.7203 15.7121 25.4072L15.6446 25.4553L12.0548 28.0194C9.98612 29.497 7.26771 27.3631 8.21187 25.0027C8.33877 24.6854 8.10513 24.3403 7.76344 24.3403H6.93603C3.50232 24.3403 0.71875 21.5568 0.71875 18.1231L0.71875 12.2629C0.718744 10.3768 0.718739 8.8981 0.815841 7.70962C0.914718 6.49942 1.1194 5.49965 1.58048 4.59472C2.33848 3.10706 3.54798 1.89756 5.03564 1.13956C5.94057 0.678478 6.94034 0.4738 8.15054 0.374923C9.33902 0.277821 10.8177 0.277826 12.7039 0.277832ZM8.31849 2.43057C7.23584 2.51903 6.53771 2.68902 5.97199 2.97726C4.87242 3.53752 3.97844 4.4315 3.41818 5.53108C3.12994 6.09679 2.95995 6.79492 2.87149 7.87757C2.78205 8.97226 2.78125 10.3669 2.78125 12.3091V18.1231C2.78125 20.4177 4.64141 22.2778 6.93603 22.2778H7.76344C9.56428 22.2778 10.7957 24.0966 10.1269 25.7687C9.94771 26.2165 10.4635 26.6214 10.856 26.3411L14.4458 23.7769L14.5241 23.7212C15.8428 22.7919 17.4143 22.2883 19.0276 22.278L19.1237 22.2778H19.8783C22.2734 22.2778 23.2499 22.2673 24.0193 22.0417C25.9291 21.4817 27.4227 19.9882 27.9827 18.0783C28.2082 17.309 28.2188 16.3325 28.2188 13.9374V12.3091C28.2188 10.3669 28.2179 8.97226 28.1285 7.87757C28.0401 6.79493 27.8701 6.09679 27.5818 5.53108C27.0216 4.4315 26.1276 3.53752 25.028 2.97726C24.4623 2.68902 23.7642 2.51903 22.6815 2.43057C21.5868 2.34113 20.1922 2.34033 18.25 2.34033H12.75C10.8078 2.34033 9.41318 2.34113 8.31849 2.43057Z" fill="white"/>
</svg>
