<svg width="34" height="34" viewBox="0 0 34 34" fill="none" xmlns="http://www.w3.org/2000/svg">
<g clip-path="url(#clip0_5_1718)">
<path fill-rule="evenodd" clip-rule="evenodd" d="M17.6761 5.1394C16.528 4.80475 15.4248 5.263 14.3667 5.9305C13.304 6.6009 12.0142 7.66394 10.4005 8.99396L8.97025 10.1727C8.69599 10.3988 8.58509 10.4898 8.47517 10.5717C7.54447 11.2653 6.42833 11.6659 5.26903 11.7227C5.13212 11.7294 4.98864 11.7297 4.63323 11.7297L4.57606 11.7297C4.26969 11.7296 4.03363 11.7295 3.82258 11.7531C2.06721 11.9495 0.681683 13.3351 0.485265 15.0904C0.461649 15.3015 0.461716 15.5375 0.461802 15.8439V17.5351C0.461716 17.8414 0.461649 18.0775 0.485265 18.2885C0.681683 20.0439 2.06721 21.4294 3.82258 21.6259C4.03364 21.6495 4.2697 21.6494 4.57608 21.6493L4.63323 21.6493C4.98864 21.6493 5.13212 21.6496 5.26903 21.6563C6.42833 21.713 7.54448 22.1137 8.47517 22.8072C8.58509 22.8891 8.69599 22.9802 8.97025 23.2062L10.4005 24.385C12.0142 25.715 13.304 26.7781 14.3667 27.4485C15.4248 28.116 16.528 28.5742 17.6761 28.2396C18.0572 28.1285 18.4184 27.9581 18.7465 27.7347C19.735 27.0615 20.083 25.9188 20.2408 24.6777C20.3994 23.4313 20.3993 21.7599 20.3993 19.6687V13.7103C20.3993 11.6191 20.3994 9.9477 20.2408 8.70125C20.083 7.46018 19.735 6.31745 18.7465 5.64427C18.4184 5.42084 18.0572 5.25047 17.6761 5.1394ZM11.6515 10.6356C13.3398 9.24417 14.5289 8.26682 15.4672 7.6749C16.4233 7.0717 16.8509 7.0472 17.099 7.11951C17.2722 7.16999 17.4364 7.24744 17.5855 7.34899C17.7991 7.49444 18.0521 7.83998 18.1948 8.9615C18.3348 10.062 18.3368 11.6012 18.3368 13.789V19.5899C18.3368 21.7778 18.3348 23.3169 18.1948 24.4175C18.0521 25.539 17.7991 25.8845 17.5855 26.03C17.4364 26.1315 17.2722 26.209 17.099 26.2595C16.8509 26.3318 16.4233 26.3073 15.4672 25.7041C14.5289 25.1121 13.3398 24.1348 11.6515 22.7433L10.2605 21.5969C10.0143 21.394 9.86281 21.2691 9.70757 21.1534C8.44839 20.2151 6.93831 19.673 5.36985 19.5963C5.17647 19.5868 4.98016 19.5868 4.66107 19.5868H4.63323C4.243 19.5868 4.13279 19.5852 4.05194 19.5761C3.25404 19.4869 2.62425 18.8571 2.53497 18.0592C2.52593 17.9783 2.52431 17.8681 2.52431 17.4779V15.9011C2.52431 15.5108 2.52593 15.4006 2.53497 15.3198C2.62425 14.5219 3.25404 13.8921 4.05194 13.8028C4.13279 13.7938 4.243 13.7922 4.63323 13.7922H4.66109C4.98014 13.7922 5.17648 13.7922 5.36985 13.7827C6.93831 13.706 8.44839 13.1639 9.70757 12.2255C9.86281 12.1099 10.0143 11.985 10.2605 11.782L11.6515 10.6356Z" fill="white"/>
<path d="M26.9723 6.33528C26.5695 5.93255 25.9166 5.93255 25.5139 6.33528C25.1111 6.73801 25.1111 7.39096 25.5139 7.79369L26.4764 8.75619C27.3133 9.59316 27.6831 9.96435 27.9612 10.2972C31.0536 13.9977 31.0536 19.3812 27.9612 23.0818C27.6831 23.4146 27.3134 23.7858 26.4764 24.6228L25.5139 25.5853C25.1111 25.988 25.1111 26.641 25.5139 27.0437C25.9166 27.4464 26.5695 27.4464 26.9723 27.0437L27.9838 26.0322C28.7587 25.2573 29.1989 24.8171 29.5438 24.4043C33.276 19.9381 33.276 13.4408 29.5438 8.97465C29.1989 8.5619 28.7586 8.1216 27.9837 7.34675L26.9723 6.33528Z" fill="white"/>
<path d="M24.2223 10.4603C23.8195 10.0576 23.1666 10.0576 22.7639 10.4603C22.3611 10.863 22.3611 11.516 22.7639 11.9187L23.3139 12.4687C23.3245 12.4793 23.3343 12.4891 23.3434 12.4982C23.4073 12.5621 23.4369 12.5918 23.4613 12.6169C25.665 14.8848 25.665 18.4942 23.4613 20.762C23.4334 20.7907 23.3987 20.8254 23.3139 20.9103L22.7639 21.4603C22.3611 21.863 22.3611 22.516 22.7639 22.9187C23.1666 23.3214 23.8195 23.3214 24.2223 22.9187L24.7796 22.3613C24.789 22.3519 24.7983 22.3427 24.8068 22.3341C24.8665 22.2745 24.9059 22.2349 24.9404 22.1994C27.922 19.1312 27.922 14.2478 24.9404 11.1796C24.9009 11.1389 24.855 11.093 24.7796 11.0176L24.2223 10.4603Z" fill="white"/>
</g>
<defs>
<clipPath id="clip0_5_1718">
<rect width="33" height="33" fill="white" transform="translate(0.118103 0.559082)"/>
</clipPath>
</defs>
</svg>
